<?xml version="1.0" encoding="UTF-8" standalone="no"?>
<svg
   xmlns:dc="http://purl.org/dc/elements/1.1/"
   xmlns:cc="http://creativecommons.org/ns#"
   xmlns:rdf="http://www.w3.org/1999/02/22-rdf-syntax-ns#"
   xmlns:svg="http://www.w3.org/2000/svg"
   xmlns="http://www.w3.org/2000/svg"
   viewBox="0 0 341.33334 341.33334"
   height="341.33334"
   width="341.33334"
   xml:space="preserve"
   id="svg2"
   version="1.1"><metadata
     id="metadata8"><rdf:RDF><cc:Work
         rdf:about=""><dc:format>image/svg+xml</dc:format><dc:type
           rdf:resource="http://purl.org/dc/dcmitype/StillImage" /></cc:Work></rdf:RDF></metadata><defs
     id="defs6" /><g
     transform="matrix(1.3333333,0,0,-1.3333333,0,341.33333)"
     id="g10"><g
       transform="scale(0.1)"
       id="g12"><path
         id="path14"
         style="fill:#040606;fill-opacity:1;fill-rule:nonzero;stroke:none"
         d="m 1280,760 c 44.18,0 80,35.82 80,80 0,44.18 -80,120 -80,120 0,0 -80,-75.82 -80,-120 0,-44.18 35.82,-80 80,-80" /><path
         id="path16"
         style="fill:#040606;fill-opacity:1;fill-rule:nonzero;stroke:none"
         d="m 1666.76,584.352 -131.94,-22.141 c -8.71,-1.461 -17.6,-1.473 -26.3,-0.031 L 1280,600 1053.15,637.809 c -8.71,1.453 -17.59,1.453 -26.3,0 L 866.848,611.141 C 828.273,604.711 800,571.34 800,532.23 V 480 c 0,-88.371 71.637,-160 160,-160 h 640 c 88.37,0 160,71.629 160,160 v 25.449 c 0,49.481 -44.45,87.09 -93.24,78.903" /><path
         id="path18"
         style="fill:#040606;fill-opacity:1;fill-rule:nonzero;stroke:none"
         d="m 1778.05,1120.85 c 0.34,0.06 0.67,0.14 1,0.2 -0.33,-0.06 -0.66,-0.14 -1,-0.2 z m 53.47,-809.018 C 1794.83,264.84 1741.37,240 1676.9,240 H 880.168 c -64.867,0 -118.574,25.09 -155.32,72.57 -44.91,58.012 -58.789,142.809 -37.184,226.95 L 848.766,1120 H 1706.12 L 1870,537.141 c 20.66,-83.801 6.3,-167.961 -38.48,-225.309 z M 781.77,1120.89 c -1.489,0.24 -2.961,0.51 -4.415,0.85 1.454,-0.34 2.926,-0.62 4.415,-0.85 z M 792,1120 c -2.543,0 -5.039,0.19 -7.504,0.48 2.469,-0.29 4.961,-0.48 7.504,-0.48 z m -17.926,2.56 c -1.203,0.35 -2.379,0.75 -3.554,1.16 1.175,-0.41 2.351,-0.81 3.554,-1.16 z M 1706.58,1500 c 0.4,-3.29 0.74,-6.58 1.33,-9.86 l 51.93,-288.62 c 0.1,-0.55 0.15,-1.06 0.16,-1.52 H 800.004 c 0.008,0.46 0.055,0.97 0.152,1.52 l 51.934,288.62 c 0.59,3.28 0.933,6.57 1.328,9.86 z m -854.486,49.86 -51.938,288.62 c -0.097,0.55 -0.144,1.06 -0.152,1.52 H 1760 c -0.01,-0.46 -0.06,-0.97 -0.16,-1.52 l -51.93,-288.63 c -0.59,-3.27 -0.93,-6.56 -1.33,-9.85 H 853.418 c -0.395,3.29 -0.738,6.58 -1.324,9.86 z m -69.727,369.37 c -0.226,-0.03 -0.445,-0.1 -0.672,-0.13 0.227,0.04 0.446,0.09 0.672,0.13 z m 65.125,160.77 43.813,-160 h -36.567 l -41.883,160 z m -10.554,190 c 1.32,0 2.644,0.07 3.957,0.2 l 901.035,89.6 -57.02,-199.8 H 867.059 Z m 95.835,-350 -43.808,160 h 773.115 l -45.66,-160 z m 807.887,160 -41.89,-160 h -40.75 l 45.66,160 z m 34.25,-160.44 c -2.28,0.24 -4.57,0.44 -6.91,0.44 2.34,0 4.64,-0.17 6.91,-0.44 z M 2020,1320 c 0,12.43 -9.09,22.66 -20.98,24.59 -19.32,70.23 -67.06,120.43 -104.46,150.54 3.46,7.59 5.44,15.99 5.44,24.87 0,33.14 -26.86,60 -60,60 -21.09,0 -39.61,-10.91 -50.31,-27.36 l 48.89,271.67 c 8.02,44.6 -18.87,86.39 -57.49,94.25 l 38.52,147.13 c 8.93,49.11 -28.8,94.31 -78.71,94.31 h -14.39 l 53.94,189.02 c 7.29,25.55 -11.89,50.98 -38.46,50.98 l -905.052,-90 c -26.243,0 -45.376,-24.84 -38.672,-50.21 l 27.32,-99.79 h -12.973 c -49.914,0 -87.636,-45.2 -78.711,-94.31 l 38.918,-148.66 c -35.297,-10.81 -58.996,-50.5 -51.398,-92.72 L 772.578,1540 H 770 c -11.047,0 -20,-8.96 -20,-20 0,-11.04 8.953,-20 20,-20 h 2.578 l -51.156,-284.31 c -7.18,-39.91 13.586,-77.62 45.691,-90.75 v 0 L 610.383,560.211 C 557.922,357.602 670.875,160 880.168,160 H 1676.9 c 208.19,0 320.94,195.648 270.45,397.609 l -159.07,565.721 c 34.68,11.29 57.81,50.59 50.3,92.36 l -48.89,271.67 c 10.7,-16.45 29.22,-27.36 50.31,-27.36 13.72,0 26.33,4.66 36.44,12.41 14.35,-20.08 28.74,-49.35 36.17,-90.82 -7.5,-4.32 -12.61,-12.32 -12.61,-21.59 0,-11.15 7.34,-20.48 17.42,-23.7 0.22,-5.3 0.36,-10.7 0.36,-16.3 0,-5.52 4.48,-10 10,-10 5.53,0 10,4.48 10,10 0,6.33 -0.18,12.41 -0.44,18.38 7.53,4.31 12.66,12.33 12.66,21.62 0,11.15 -7.35,20.48 -17.43,23.71 -4.73,27.36 -12.28,49.98 -21.06,68.54 27.4,-27.96 54.73,-65.72 67.99,-112.78 -5.75,-4.58 -9.5,-11.55 -9.5,-19.47 0,-11.03 7.2,-20.29 17.11,-23.61 0.4,-5.38 0.67,-10.82 0.67,-16.39 0,-5.52 4.48,-10 10,-10 5.53,0 10,4.48 10,10 0,6.2 -0.3,12.25 -0.74,18.22 7.69,4.26 12.96,12.36 12.96,21.78" /></g></g></svg>